<?xml version='1.0' encoding='utf-8'?>
<svg xmlns="http://www.w3.org/2000/svg" version="1.1" width="600px" height="976px" viewBox="0 0 600 976"> <g id="layer1"> <g style="fill:rgb(0,0,0); fill-opacity:1.0; stroke-linejoin: miter"> <path d="M294.34348,188.42247Q313.93622,204.74239,314.13547,226.35022L270.8891,288.06885L266.08167,299.12027Q262.46436,317.0675,269.1737,352.966L272.8261,359.7502L352.57877,359.33478Q357.52295,359.19186,359.44388,358.14368Q366.0848,355.69107,364.97028,351.08624Q364.50253,350.71988,373.00607,348.0052Q373.6612,346.73102,392.74445,347.0024Q412.45807,350.4634,417.3728,359.4272Q434.06903,383.75644,437.2552,396.67593Q458.89874,472.77643,460.70026,506.74582Q468.20837,572.8405,425.1169,577.57635Q405.16718,578.31775,391.9416,560.5662Q386.90784,554.6495,380.98755,541.71484L362.1002,497.29874Q343.84067,507.7534,334.10547,505.49316Q319.24945,505.4997,309.04718,496.08304L247.55583,497.0216Q229.49084,508.45444,219.75246,506.76154Q206.52243,507.2455,194.11504,498.73474Q190.89134,500.56833,190.34662,501.9637Q173.45772,552.9624,169.06274,556.30774Q163.85153,567.15436,153.53093,575.0682Q116.75444,593.80505,99.021484,554.55255Q83.66025,499.0146,123.528305,382.4121L135.9842,361.01086Q139.73978,354.14426,156.03333,349.48886Q178.33064,349.07837,179.34251,349.76718L186.65186,352.25458Q184.86226,357.5781,196.13104,360.65717L264.4976,359.72403Q255.66687,341.6874,259.48642,297.1678L264.5639,284.75827L306.89444,224.11975Q307.2791,211.23793,291.36548,193.25056Q290.12265,190.07068,294.29907,188.42325 Z"/> </g> <g> <g style="fill:rgb(0,0,0); fill-opacity:1.0; stroke-linejoin: miter"> <path d="M445.81516,106.08619L432.20462,106.28171L432.38864,119.09165L445.99918,118.89613L445.81516,106.08619 Z M492.56024,135.71411Q495.79523,135.7052,497.89792,136.16817Q500.04056,136.67125,501.26443,138.25525Q502.48654,139.7058,503.06052,142.50029Q503.50113,145.2967,503.56436,149.70012L503.9918,179.45645Q504.05502,183.85986,503.56155,186.6697Q503.20145,189.47762,502.02353,191.09613Q500.84372,192.58118,498.58298,193.14752Q496.4557,193.71191,492.8529,193.76369L484.5799,193.88257Q484.30536,193.8865,484.0385,193.88722Q480.8036,193.89613,478.70093,193.43318Q476.5583,192.9301,475.33435,191.3461Q474.11237,189.89555,473.53833,187.10104Q473.09778,184.30463,473.0345,179.90121L472.60706,150.14485Q472.54376,145.74144,473.0373,142.93163Q473.39734,140.12369,474.57526,138.5052Q475.755,137.02013,478.0158,136.4538Q480.1432,135.8894,483.74603,135.83763L492.01904,135.71878Q492.29352,135.71484,492.56024,135.71411 Z M566.3709,126.646645Q566.0361,126.64757,565.6944,126.65249L529.13275,127.177734L530.19666,201.23502L543.8071,201.03946L542.8583,134.98842L561.00574,134.72769Q561.28015,134.72375,561.547,134.72304Q564.78186,134.71413,566.8847,135.1771Q569.0273,135.68016,570.2512,137.26416Q571.47327,138.71469,572.04724,141.50922Q572.4878,144.3056,572.5511,148.70901L573.29663,200.6158L586.90717,200.42029L586.1692,149.04724Q586.08105,142.90916,585.0838,138.51915Q584.22174,134.26068,581.7796,131.49301Q579.4729,128.85692,575.58606,127.711555Q571.9203,126.63139,566.3709,126.646645 Z M497.3843,127.63774Q497.04947,127.63866,496.7078,127.64357L478.82727,127.900444Q472.82263,127.98672,468.9702,129.24323Q465.11774,130.49977,462.7562,133.33644Q460.5261,136.03773,459.6553,140.45457Q458.916,144.73607,459.00418,150.87413L459.4163,179.56302Q459.50644,185.83452,460.50186,190.09108Q461.36374,194.34952,463.80582,197.11719Q466.11264,199.75333,469.99957,200.89865Q473.66528,201.97882,479.2146,201.96355Q479.54938,201.96263,479.8911,201.9577L497.7716,201.70084Q503.77615,201.61455,507.62863,200.35806Q511.4811,199.10156,513.84265,196.26488Q516.0728,193.56357,516.9455,189.28017Q517.68475,184.99872,517.59467,178.72717L517.1825,150.03831Q517.0944,143.90025,516.0971,139.51025Q515.2352,135.2518,512.793,132.48413Q510.4863,129.84799,506.59933,128.70264Q502.9337,127.62248,497.3843,127.63774 Z M446.13528,128.37012L432.52478,128.56563L433.5886,202.62294L447.1991,202.42737L446.13528,128.37012 Z M405.15726,109.47305L391.54672,109.66857L392.63364,185.32715Q392.6892,189.19681,393.67117,192.51933Q394.51773,195.71028,396.5538,198.08339Q398.45645,200.45839,401.8115,201.74481Q404.90027,202.98004,409.4434,202.96756Q409.6388,202.96701,409.83688,202.96416L421.31244,202.7993L421.19745,194.7931L415.1928,194.8794Q415.05646,194.88135,414.92233,194.88171Q409.9389,194.89542,408.08807,192.71254Q406.32272,190.60254,406.23074,184.19756L405.55212,136.96101L424.09982,136.69453L423.98483,128.68834L405.4371,128.9548L405.15726,109.47305 Z M360.07806,129.61032Q359.74323,129.61124,359.4015,129.61617L335.3829,129.96121L335.49796,137.96744L354.7128,137.69138Q354.98734,137.68744,355.25415,137.6867Q358.489,137.6778,360.5917,138.14078Q362.7343,138.64384,363.95825,140.22783Q365.18024,141.67836,365.75424,144.47287Q366.19485,147.2693,366.25803,151.6727L366.88873,195.57333L351.81042,195.78996Q351.53577,195.79391,351.26883,195.79466Q348.03412,195.80353,345.93155,195.34056Q343.7908,194.97093,342.5727,193.7873Q341.35443,192.60358,340.792,190.6097Q340.3648,188.74731,340.3207,185.6783L340.19803,177.13837Q340.15775,174.33618,340.66473,172.46042Q341.03818,170.58653,342.2218,169.36835Q343.40744,168.2836,345.6682,167.71729Q347.7955,167.15286,351.39832,167.1011L357.1361,167.01869L357.02487,159.27936L346.48334,159.43082Q340.47873,159.51707,336.6263,160.77356Q332.772,161.89667,330.40268,164.19958Q328.16492,166.36717,327.27884,169.71652Q326.52423,172.93048,326.5855,177.20044L326.72165,186.67444Q326.783,190.94444,327.76492,194.26688Q328.61157,197.45787,331.04602,199.69177Q333.34512,201.79419,337.23206,202.93951Q340.869,203.88683,346.36346,203.8717Q346.73828,203.87068,347.12173,203.86517L380.61423,203.38399L379.87625,152.0109Q379.78815,145.87283,378.79083,141.48283Q377.92883,137.22438,375.48672,134.45673Q373.17993,131.82056,369.2931,130.67523Q365.62732,129.59506,360.07806,129.61032 Z M301.07666,110.968285L287.46622,111.16382L288.55304,186.82242Q288.60867,190.69206,289.5906,194.01456Q290.43726,197.20552,292.47327,199.57864Q294.37592,201.95367,297.73093,203.24008Q300.81967,204.47533,305.3626,204.46281Q305.55817,204.4623,305.75632,204.45944L317.2319,204.29457L317.11688,196.28839L311.1122,196.37462Q310.97586,196.37657,310.8418,196.37697Q305.85837,196.39066,304.00748,194.2078Q302.24216,192.09776,302.15015,185.69281L301.47156,138.45627L320.01926,138.1898L319.90427,130.18361L301.35657,130.45006L301.07666,110.968285 Z M270.25287,111.41111L244.23267,111.784935Q232.89055,111.947876,228.31999,118.953674Q223.88087,125.824135,224.05727,138.10031Q224.16075,145.30588,225.16573,150.2296Q226.16881,155.01991,228.34789,158.05827Q230.52504,160.96323,234.01357,162.24774Q237.3502,163.47633,242.13423,163.46317Q242.35197,163.46259,242.57268,163.45941L252.71387,163.31372Q252.98587,163.30981,253.25119,163.30908Q256.8899,163.29907,259.26187,163.88698Q261.6714,164.38623,263.1641,166.09982Q264.52145,167.68188,265.10123,170.87668Q265.67908,173.93806,265.75,178.87523Q265.83243,184.613,265.08353,188.2273Q264.46622,191.70625,263.02716,193.72887Q261.7215,195.74957,259.46268,196.44939Q257.33725,197.14722,254.53513,197.18747L227.31401,197.57855L227.42906,205.58475L257.31888,205.1553Q269.1947,204.9847,274.03412,198.10852Q278.87354,191.23233,278.66455,176.68771Q278.54956,168.68155,277.27582,163.62819Q276.00204,158.57486,273.42648,155.80908Q270.8509,153.04337,266.83246,152.03336Q263.16953,151.07932,258.2155,151.09294Q257.91513,151.09377,257.61,151.09814L248.13596,151.23424Q247.91559,151.23741,247.70074,151.238Q244.40201,151.24707,242.38866,150.64949Q240.2441,150.013,239.01823,148.29558Q237.92775,146.70967,237.48332,143.64638Q237.04085,140.71652,236.97374,136.04623Q236.90477,131.24251,237.5259,128.03046Q238.14903,124.95182,239.58998,123.062614Q240.89941,121.308784,242.88947,120.4794Q244.88138,119.78346,247.6836,119.74321L270.3679,119.41733L270.25287,111.41111 Z M133.10226,132.87112Q132.76744,132.87204,132.42574,132.87698L108.40713,133.22202L108.52215,141.22824L127.73703,140.9522Q128.01157,140.94826,128.27838,140.94751Q131.51328,140.93863,133.61592,141.4016Q135.75856,141.90466,136.98248,143.48863Q138.2045,144.93918,138.77852,147.73369Q139.21909,150.53009,139.28235,154.9335L139.91302,198.83418L124.83467,199.0508Q124.56001,199.05472,124.293106,199.05545Q121.058365,199.06435,118.95579,198.60136Q116.815025,198.23174,115.596855,197.04807Q114.37867,195.8644,113.81617,193.8705Q113.38903,192.00815,113.34493,188.93912L113.22225,180.39919Q113.182014,177.597,113.688896,175.7212Q114.062386,173.84735,115.24607,172.62915Q116.43166,171.54442,118.6924,170.97812Q120.81972,170.4137,124.422516,170.36192L130.1603,170.27951L130.04912,162.54016L119.5076,162.69159Q113.50295,162.77786,109.650536,164.0344Q105.79621,165.15747,103.42696,167.46042Q101.189186,169.628,100.30306,172.97733Q99.54844,176.1913,99.60978,180.46129L99.7459,189.93529Q99.8072,194.20526,100.78921,197.52773Q101.63584,200.7187,104.07029,202.9526Q106.36938,205.05502,110.25628,206.20035Q113.89324,207.14766,119.387764,207.13254Q119.76255,207.13152,120.14595,207.126L153.63857,206.64482L152.90054,155.27173Q152.81238,149.13367,151.81505,144.74367Q150.95308,140.48518,148.51099,137.71751Q146.20422,135.08138,142.31729,133.93604Q138.65157,132.85585,133.10226,132.87112 Z M87.53965,111.36675L73.929085,111.56228L75.31122,207.7701L88.92177,207.57455L87.53965,111.36675 Z M44.07567,114.66578Q43.615585,114.667046,43.14353,114.673836L9.117153,115.162674L10.460954,208.70177L24.471815,208.5005L23.243029,122.96758L41.65732,122.70303Q41.780693,122.70128,41.902435,122.70094Q44.677536,122.69331,46.605988,123.43273Q48.61903,124.2046,49.85256,126.455765Q50.950718,128.57542,51.54198,132.57085Q51.999805,136.56819,52.089886,142.83974Q52.179977,149.11124,51.703735,153.12202Q51.359016,156.99744,50.19068,159.28311Q49.153862,161.43343,47.16382,162.2628Q45.171844,162.95872,42.236237,163.0009L29.292877,163.18689L29.405975,171.05968L43.950577,170.8507Q50.622414,170.75484,55.01049,169.62408Q59.267048,168.62868,61.76018,165.65663Q64.11986,162.68652,65.108765,157.20032Q65.96423,151.71597,65.837715,142.90915Q65.711205,134.10234,64.563194,128.5133Q63.54862,122.922386,60.967304,119.75635Q58.52136,116.72181,54.10069,115.58412Q50.118565,114.64916,44.07567,114.66578 Z M219.55989,131.62517L206.74997,131.80919L190.80147,192.23068L174.05797,132.27885L160.04715,132.48015L184.61888,207.8013L176.7445,235.67502L189.82133,235.48718L219.55989,131.62517 Z"/> </g> </g> </g> </svg>